<?xml version="1.0" encoding="UTF-8" standalone="no"?>
<!-- Created with Inkscape (http://www.inkscape.org/) -->

<svg
   xmlns:dc="http://purl.org/dc/elements/1.1/"
   xmlns:cc="http://creativecommons.org/ns#"
   xmlns:rdf="http://www.w3.org/1999/02/22-rdf-syntax-ns#"
   xmlns:svg="http://www.w3.org/2000/svg"
   xmlns="http://www.w3.org/2000/svg"
   xmlns:xlink="http://www.w3.org/1999/xlink"
   xmlns:sodipodi="http://sodipodi.sourceforge.net/DTD/sodipodi-0.dtd"
   xmlns:inkscape="http://www.inkscape.org/namespaces/inkscape"
   width="1052.3622"
   height="744.09448"
   id="svg2"
   version="1.1"
   inkscape:version="0.48.3.1 r9886"
   sodipodi:docname="desenho.svg"
   inkscape:export-filename="/home/lucas/Desktop/desenho.png"
   inkscape:export-xdpi="90"
   inkscape:export-ydpi="90">
  <defs
     id="defs4" />
  <sodipodi:namedview
     id="base"
     pagecolor="#ffffff"
     bordercolor="#666666"
     borderopacity="1.0"
     inkscape:pageopacity="0.0"
     inkscape:pageshadow="2"
     inkscape:zoom="0.7"
     inkscape:cx="395"
     inkscape:cy="455.72632"
     inkscape:document-units="px"
     inkscape:current-layer="layer1"
     showgrid="false"
     inkscape:window-width="1920"
     inkscape:window-height="1056"
     inkscape:window-x="0"
     inkscape:window-y="24"
     inkscape:window-maximized="1"
     inkscape:snap-grids="false"
     inkscape:snap-to-guides="false"
     showguides="true"
     inkscape:guide-bbox="true" />
  <metadata
     id="metadata7">
    <rdf:RDF>
      <cc:Work
         rdf:about="">
        <dc:format>image/svg+xml</dc:format>
        <dc:type
           rdf:resource="http://purl.org/dc/dcmitype/StillImage" />
        <dc:title></dc:title>
      </cc:Work>
    </rdf:RDF>
  </metadata>
  <g
     inkscape:label="Camada 1"
     inkscape:groupmode="layer"
     id="layer1"
     transform="translate(0,-308.2677)">
    <path
       sodipodi:type="star"
       style="fill:#ffffff;fill-opacity:1;fill-rule:evenodd;stroke:#000000;stroke-width:1238848320365229490980945657856;stroke-miterlimit:4;stroke-opacity:1;stroke-dasharray:none;stroke-dashoffset:6.65911639"
       id="path3005"
       sodipodi:sides="6"
       sodipodi:cx="164.65486"
       sodipodi:cy="161.40764"
       sodipodi:r1="145.98364"
       sodipodi:r2="126.42554"
       sodipodi:arg1="0.52359878"
       sodipodi:arg2="1.0471976"
       inkscape:flatsided="true"
       inkscape:rounded="0"
       inkscape:randomized="0"
       d="M 291.0804,234.39946 164.65486,307.39128 38.229318,234.39946 38.229319,88.415817 164.65486,15.423996 291.0804,88.415818 z"
       transform="matrix(0.49583928,0,0,0.49583928,24.135648,7.9131567)" />
    <path
       transform="matrix(0.49583928,0,0,0.49583928,149.84478,7.9232253)"
       sodipodi:type="star"
       style="fill:#ffffff;fill-opacity:1;fill-rule:evenodd;stroke:#000000;stroke-width:1238848320365229490980945657856;stroke-miterlimit:4;stroke-opacity:1;stroke-dasharray:none;stroke-dashoffset:6.65911639"
       id="path3005-8"
       sodipodi:sides="6"
       sodipodi:cx="164.65486"
       sodipodi:cy="161.40764"
       sodipodi:r1="145.98364"
       sodipodi:r2="126.42554"
       sodipodi:arg1="0.52359878"
       sodipodi:arg2="1.0471976"
       inkscape:flatsided="true"
       inkscape:rounded="0"
       inkscape:randomized="0"
       d="M 291.0804,234.39946 164.65486,307.39128 38.229318,234.39946 38.229319,88.415817 164.65486,15.423996 291.0804,88.415818 z" />
    <path
       sodipodi:type="star"
       style="fill:#ffffff;fill-opacity:1;fill-rule:evenodd;stroke:#000000;stroke-width:1238848320365229490980945657856;stroke-miterlimit:4;stroke-opacity:1;stroke-dasharray:none;stroke-dashoffset:6.65911639"
       id="path3005-2"
       sodipodi:sides="6"
       sodipodi:cx="164.65486"
       sodipodi:cy="161.40764"
       sodipodi:r1="145.98364"
       sodipodi:r2="126.42554"
       sodipodi:arg1="0.52359878"
       sodipodi:arg2="1.0471976"
       inkscape:flatsided="true"
       inkscape:rounded="0"
       inkscape:randomized="0"
       d="M 291.0804,234.39946 164.65486,307.39128 38.229318,234.39946 38.229319,88.415817 164.65486,15.423996 291.0804,88.415818 z"
       transform="matrix(0.49583928,0,0,0.49583928,274.33886,7.2771697)" />
    <path
       transform="matrix(0.49583928,0,0,0.49583928,400.048,7.287236)"
       sodipodi:type="star"
       style="fill:#ffffff;fill-opacity:1;fill-rule:evenodd;stroke:#000000;stroke-width:1238848320365229490980945657856;stroke-miterlimit:4;stroke-opacity:1;stroke-dasharray:none;stroke-dashoffset:6.65911639"
       id="path3005-8-4"
       sodipodi:sides="6"
       sodipodi:cx="164.65486"
       sodipodi:cy="161.40764"
       sodipodi:r1="145.98364"
       sodipodi:r2="126.42554"
       sodipodi:arg1="0.52359878"
       sodipodi:arg2="1.0471976"
       inkscape:flatsided="true"
       inkscape:rounded="0"
       inkscape:randomized="0"
       d="M 291.0804,234.39946 164.65486,307.39128 38.229318,234.39946 38.229319,88.415817 164.65486,15.423996 291.0804,88.415818 z" />
    <path
       sodipodi:type="star"
       style="fill:#ffffff;fill-opacity:1;fill-rule:evenodd;stroke:#000000;stroke-width:1238848320365229490980945657856;stroke-miterlimit:4;stroke-opacity:1;stroke-dasharray:none;stroke-dashoffset:6.65911639"
       id="path3005-14"
       sodipodi:sides="6"
       sodipodi:cx="164.65486"
       sodipodi:cy="161.40764"
       sodipodi:r1="145.98364"
       sodipodi:r2="126.42554"
       sodipodi:arg1="0.52359878"
       sodipodi:arg2="1.0471976"
       inkscape:flatsided="true"
       inkscape:rounded="0"
       inkscape:randomized="0"
       d="M 291.0804,234.39946 164.65486,307.39128 38.229318,234.39946 38.229319,88.415817 164.65486,15.423996 291.0804,88.415818 z"
       transform="matrix(0.49583928,0,0,0.49583928,524.26469,6.7632319)" />
    <path
       sodipodi:type="star"
       style="fill:#ffffff;fill-opacity:1;fill-rule:evenodd;stroke:#000000;stroke-width:1238848320365229490980945657856;stroke-miterlimit:4;stroke-opacity:1;stroke-dasharray:none;stroke-dashoffset:6.65911639"
       id="path3005-86"
       sodipodi:sides="6"
       sodipodi:cx="164.65486"
       sodipodi:cy="161.40764"
       sodipodi:r1="145.98364"
       sodipodi:r2="126.42554"
       sodipodi:arg1="0.52359878"
       sodipodi:arg2="1.0471976"
       inkscape:flatsided="true"
       inkscape:rounded="0"
       inkscape:randomized="0"
       d="M 291.0804,234.39946 164.65486,307.39128 38.229318,234.39946 38.229319,88.415817 164.65486,15.423996 291.0804,88.415818 z"
       transform="matrix(0.49583928,0,0,0.49583928,525.89874,4.6887425)" />
    <rect
       style="fill:#cccccc;fill-opacity:1;fill-rule:evenodd;stroke:none"
       id="rect3827"
       width="755.2475"
       height="1073.5173"
       x="302.69119"
       y="-1062.9397"
       transform="matrix(0,1,-1,0,0,0)" />
    <g
       id="g3255"
       transform="translate(-5.0737261,-2.4355738)">
      <path
         inkscape:tile-y0="4.7013725"
         inkscape:tile-x0="5.5088343"
         inkscape:tile-h="139.48779"
         inkscape:tile-w="121.34454"
         inkscape:tile-cy="74.445266"
         inkscape:tile-cx="66.181102"
         inkscape:connector-curvature="0"
         id="path3067"
         d="m 900.19952,346.92131 17.087,-29.94984 35.04902,-0.25227 35.04902,-0.25228 7.84696,13.23983 c 4.31583,7.2819 12.42148,21.00002 18.01268,30.48472 l 10.1657,17.24489 -17.1669,30.56254 -17.16686,30.56255 -35.79491,-0.0639 -35.79492,-0.0639 -17.23932,-29.3434 c -9.48164,-16.13888 -17.21576,-29.99043 -17.18692,-30.78122 0.0288,-0.7908 7.74159,-14.91524 17.13945,-31.38765 z"
         style="fill:#ffffff;fill-opacity:1;fill-rule:evenodd;stroke:#000000;stroke-width:2.36854959;stroke-miterlimit:4;stroke-opacity:1;stroke-dasharray:none;stroke-dashoffset:6.65911639" />
      <use
         height="1052.3622"
         width="744.09448"
         id="use3313"
         xlink:href="#path3067"
         inkscape:tiled-clone-of="#path3067"
         y="0"
         x="0" />
      <use
         height="1052.3622"
         width="744.09448"
         id="use3315"
         transform="translate(-105.26244,61.047266)"
         xlink:href="#path3067"
         inkscape:tiled-clone-of="#path3067"
         y="0"
         x="0" />
      <use
         height="1052.3622"
         width="744.09448"
         id="use3317"
         transform="translate(-210.52488,122.09454)"
         xlink:href="#path3067"
         inkscape:tiled-clone-of="#path3067"
         y="0"
         x="0" />
      <use
         height="1052.3622"
         width="744.09448"
         id="use3319"
         transform="translate(-315.78732,183.14179)"
         xlink:href="#path3067"
         inkscape:tiled-clone-of="#path3067"
         y="0"
         x="0" />
      <use
         height="1052.3622"
         width="744.09448"
         id="use3321"
         transform="translate(-421.04976,244.18906)"
         xlink:href="#path3067"
         inkscape:tiled-clone-of="#path3067"
         y="0"
         x="0" />
      <use
         height="1052.3622"
         width="744.09448"
         id="use3323"
         transform="translate(-526.3122,305.23633)"
         xlink:href="#path3067"
         inkscape:tiled-clone-of="#path3067"
         y="0"
         x="0" />
      <use
         height="1052.3622"
         width="744.09448"
         id="use3325"
         transform="translate(-631.57464,366.2836)"
         xlink:href="#path3067"
         inkscape:tiled-clone-of="#path3067"
         y="0"
         x="0" />
      <use
         height="1052.3622"
         width="744.09448"
         id="use3327"
         transform="translate(-736.83708,427.33085)"
         xlink:href="#path3067"
         inkscape:tiled-clone-of="#path3067"
         y="0"
         x="0" />
      <use
         height="1052.3622"
         width="744.09448"
         id="use3329"
         transform="translate(-842.09952,488.37812)"
         xlink:href="#path3067"
         inkscape:tiled-clone-of="#path3067"
         y="0"
         x="0" />
      <use
         height="1052.3622"
         width="744.09448"
         id="use3331"
         transform="translate(-3.2850409e-7,122.09454)"
         xlink:href="#path3067"
         inkscape:tiled-clone-of="#path3067"
         y="0"
         x="0" />
      <use
         height="1052.3622"
         width="744.09448"
         id="use3333"
         transform="translate(-105.26244,183.14179)"
         xlink:href="#path3067"
         inkscape:tiled-clone-of="#path3067"
         y="0"
         x="0" />
      <use
         height="1052.3622"
         width="744.09448"
         id="use3335"
         transform="translate(-210.52488,244.18906)"
         xlink:href="#path3067"
         inkscape:tiled-clone-of="#path3067"
         y="0"
         x="0" />
      <use
         height="1052.3622"
         width="744.09448"
         id="use3337"
         transform="translate(-315.78732,305.23633)"
         xlink:href="#path3067"
         inkscape:tiled-clone-of="#path3067"
         y="0"
         x="0" />
      <use
         height="1052.3622"
         width="744.09448"
         id="use3339"
         transform="translate(-421.04976,366.2836)"
         xlink:href="#path3067"
         inkscape:tiled-clone-of="#path3067"
         y="0"
         x="0" />
      <use
         height="1052.3622"
         width="744.09448"
         id="use3341"
         transform="translate(-526.3122,427.33085)"
         xlink:href="#path3067"
         inkscape:tiled-clone-of="#path3067"
         y="0"
         x="0" />
      <use
         height="1052.3622"
         width="744.09448"
         id="use3343"
         transform="translate(-631.57464,488.37812)"
         xlink:href="#path3067"
         inkscape:tiled-clone-of="#path3067"
         y="0"
         x="0" />
      <use
         height="1052.3622"
         width="744.09448"
         id="use3345"
         transform="translate(-736.83708,549.42539)"
         xlink:href="#path3067"
         inkscape:tiled-clone-of="#path3067"
         y="0"
         x="0" />
      <use
         height="1052.3622"
         width="744.09448"
         id="use3347"
         transform="translate(-842.09952,610.47266)"
         xlink:href="#path3067"
         inkscape:tiled-clone-of="#path3067"
         y="0"
         x="0" />
      <use
         height="1052.3622"
         width="744.09448"
         id="use3349"
         transform="translate(-3.2850409e-7,244.18906)"
         xlink:href="#path3067"
         inkscape:tiled-clone-of="#path3067"
         y="0"
         x="0" />
      <use
         height="1052.3622"
         width="744.09448"
         id="use3351"
         transform="translate(-105.26244,305.23633)"
         xlink:href="#path3067"
         inkscape:tiled-clone-of="#path3067"
         y="0"
         x="0" />
      <use
         height="1052.3622"
         width="744.09448"
         id="use3353"
         transform="translate(-210.52488,366.2836)"
         xlink:href="#path3067"
         inkscape:tiled-clone-of="#path3067"
         y="0"
         x="0" />
      <use
         height="1052.3622"
         width="744.09448"
         id="use3355"
         transform="translate(-315.78732,427.33085)"
         xlink:href="#path3067"
         inkscape:tiled-clone-of="#path3067"
         y="0"
         x="0" />
      <use
         height="1052.3622"
         width="744.09448"
         id="use3357"
         transform="translate(-421.04976,488.37812)"
         xlink:href="#path3067"
         inkscape:tiled-clone-of="#path3067"
         y="0"
         x="0" />
      <use
         height="1052.3622"
         width="744.09448"
         id="use3359"
         transform="translate(-526.3122,549.42539)"
         xlink:href="#path3067"
         inkscape:tiled-clone-of="#path3067"
         y="0"
         x="0" />
      <use
         height="1052.3622"
         width="744.09448"
         id="use3361"
         transform="translate(-631.57464,610.47266)"
         xlink:href="#path3067"
         inkscape:tiled-clone-of="#path3067"
         y="0"
         x="0" />
      <use
         height="1052.3622"
         width="744.09448"
         id="use3367"
         transform="translate(-3.2850409e-7,366.2836)"
         xlink:href="#path3067"
         inkscape:tiled-clone-of="#path3067"
         y="0"
         x="0" />
      <use
         height="1052.3622"
         width="744.09448"
         id="use3369"
         transform="translate(-105.26244,427.33085)"
         xlink:href="#path3067"
         inkscape:tiled-clone-of="#path3067"
         y="0"
         x="0" />
      <use
         height="1052.3622"
         width="744.09448"
         id="use3371"
         transform="translate(-210.52488,488.37812)"
         xlink:href="#path3067"
         inkscape:tiled-clone-of="#path3067"
         y="0"
         x="0" />
      <use
         height="1052.3622"
         width="744.09448"
         id="use3373"
         transform="translate(-315.78732,549.42539)"
         xlink:href="#path3067"
         inkscape:tiled-clone-of="#path3067"
         y="0"
         x="0" />
      <use
         height="1052.3622"
         width="744.09448"
         id="use3375"
         transform="translate(-421.04976,610.47266)"
         xlink:href="#path3067"
         inkscape:tiled-clone-of="#path3067"
         y="0"
         x="0" />
      <use
         height="1052.3622"
         width="744.09448"
         id="use3385"
         transform="translate(-3.2850409e-7,488.37812)"
         xlink:href="#path3067"
         inkscape:tiled-clone-of="#path3067"
         y="0"
         x="0" />
      <use
         height="1052.3622"
         width="744.09448"
         id="use3387"
         transform="translate(-105.26244,549.42539)"
         xlink:href="#path3067"
         inkscape:tiled-clone-of="#path3067"
         y="0"
         x="0" />
      <use
         height="1052.3622"
         width="744.09448"
         id="use3389"
         transform="translate(-210.52488,610.47266)"
         xlink:href="#path3067"
         inkscape:tiled-clone-of="#path3067"
         y="0"
         x="0" />
      <use
         height="1052.3622"
         width="744.09448"
         id="use3403"
         transform="translate(-3.2850409e-7,610.47266)"
         xlink:href="#path3067"
         inkscape:tiled-clone-of="#path3067"
         y="0"
         x="0" />
      <path
         style="fill:#ffffff;fill-opacity:1;fill-rule:evenodd;stroke:#000000;stroke-width:2.36854959;stroke-miterlimit:4;stroke-opacity:1;stroke-dasharray:none;stroke-dashoffset:6.65911639"
         d="m 56.239245,347.56292 17.087,-29.94984 35.049025,-0.25227 35.04903,-0.25227 7.84696,13.23983 c 4.31582,7.2819 12.42152,21.00001 18.01268,30.48472 l 10.16571,17.24488 -17.16689,30.56254 -17.16689,30.56256 -35.79491,-0.0639 -35.794915,-0.0639 -17.23933,-29.34341 c -9.4816,-16.13888 -17.2157,-29.99043 -17.1869,-30.78122 0.029,-0.79079 7.7416,-14.91524 17.13943,-31.38765 z"
         id="use3365-9"
         inkscape:connector-curvature="0"
         inkscape:tile-x0="5.5088343"
         inkscape:tile-y0="4.7013725" />
      <path
         style="fill:#ffffff;fill-opacity:1;fill-rule:evenodd;stroke:#000000;stroke-width:2.36854959;stroke-miterlimit:4;stroke-opacity:1;stroke-dasharray:none;stroke-dashoffset:6.65911639"
         d="m 266.76405,347.56292 17.087,-29.94984 35.04902,-0.25227 35.04903,-0.25227 7.84696,13.23983 c 4.31582,7.2819 12.42152,21.00001 18.01268,30.48472 l 10.16571,17.24488 -17.16689,30.56254 -17.16689,30.56256 -35.79491,-0.0639 -35.79491,-0.0639 -17.23933,-29.34341 c -9.48163,-16.13888 -17.21575,-29.99043 -17.18691,-30.78122 0.0288,-0.79079 7.74158,-14.91524 17.13944,-31.38765 z"
         id="use3379-1"
         inkscape:connector-curvature="0"
         inkscape:tile-x0="5.5088343"
         inkscape:tile-y0="4.7013725" />
      <path
         style="fill:#ffffff;fill-opacity:1;fill-rule:evenodd;stroke:#000000;stroke-width:2.36854959;stroke-miterlimit:4;stroke-opacity:1;stroke-dasharray:none;stroke-dashoffset:6.65911639"
         d="m 161.50165,408.61022 17.087,-29.94984 35.04902,-0.25228 35.04903,-0.25227 7.84696,13.23983 c 4.31582,7.2819 12.42152,21.00002 18.01268,30.48472 l 10.16571,17.24488 -17.16689,30.56255 -17.16689,30.56256 -35.79491,-0.0639 -35.79491,-0.0639 -17.23933,-29.3434 c -9.48163,-16.13888 -17.21575,-29.99043 -17.18691,-30.78123 0.0288,-0.79078 7.74158,-14.91524 17.13944,-31.38764 z"
         id="use3381-2"
         inkscape:connector-curvature="0"
         inkscape:tile-x0="5.5088343"
         inkscape:tile-y0="4.7013725" />
      <path
         style="fill:#ffffff;fill-opacity:1;fill-rule:evenodd;stroke:#000000;stroke-width:2.36854959;stroke-miterlimit:4;stroke-opacity:1;stroke-dasharray:none;stroke-dashoffset:6.65911639"
         d="m 56.239245,469.65752 17.087,-29.94984 35.049025,-0.25228 35.04903,-0.25227 7.84696,13.23983 c 4.31582,7.2819 12.42152,21.00002 18.01268,30.48472 l 10.16571,17.24488 -17.16689,30.56255 -17.16689,30.56256 -35.79491,-0.0639 -35.794915,-0.0639 -17.23933,-29.34341 c -9.4816,-16.13887 -17.2157,-29.99042 -17.1869,-30.78122 0.029,-0.79079 7.7416,-14.91524 17.13943,-31.38764 z"
         id="use3383-3"
         inkscape:connector-curvature="0"
         inkscape:tile-x0="5.5088343"
         inkscape:tile-y0="4.7013725" />
      <path
         style="fill:#ffffff;fill-opacity:1;fill-rule:evenodd;stroke:#000000;stroke-width:2.36854959;stroke-miterlimit:4;stroke-opacity:1;stroke-dasharray:none;stroke-dashoffset:6.65911639"
         d="m 477.28897,347.56292 17.08701,-29.94984 35.04901,-0.25227 35.04903,-0.25227 7.84696,13.23983 c 4.31582,7.2819 12.42152,21.00001 18.01268,30.48472 l 10.16571,17.24488 -17.16689,30.56254 -17.16689,30.56256 -35.79491,-0.0639 -35.79491,-0.0639 -17.23932,-29.34341 c -9.48164,-16.13888 -17.21576,-29.99043 -17.18692,-30.78122 0.0288,-0.79079 7.74159,-14.91524 17.13944,-31.38765 z"
         id="use3393-9"
         inkscape:connector-curvature="0"
         inkscape:tile-x0="5.5088343"
         inkscape:tile-y0="4.7013725" />
      <path
         style="fill:#ffffff;fill-opacity:1;fill-rule:evenodd;stroke:#000000;stroke-width:2.36854959;stroke-miterlimit:4;stroke-opacity:1;stroke-dasharray:none;stroke-dashoffset:6.65911639"
         d="m 372.02655,408.61022 17.087,-29.94984 35.04902,-0.25228 35.04903,-0.25227 7.84696,13.23983 c 4.31582,7.2819 12.42152,21.00002 18.01268,30.48472 l 10.16571,17.24488 -17.16689,30.56255 -17.16689,30.56256 -35.79491,-0.0639 -35.79491,-0.0639 -17.23932,-29.3434 c -9.48164,-16.13888 -17.21576,-29.99043 -17.18692,-30.78123 0.0288,-0.79078 7.74159,-14.91524 17.13944,-31.38764 z"
         id="use3395-0"
         inkscape:connector-curvature="0"
         inkscape:tile-x0="5.5088343"
         inkscape:tile-y0="4.7013725" />
      <path
         style="fill:#ffffff;fill-opacity:1;fill-rule:evenodd;stroke:#000000;stroke-width:2.36854959;stroke-miterlimit:4;stroke-opacity:1;stroke-dasharray:none;stroke-dashoffset:6.65911639"
         d="m 266.76405,469.65752 17.087,-29.94984 35.04902,-0.25228 35.04903,-0.25227 7.84696,13.23983 c 4.31582,7.2819 12.42152,21.00002 18.01268,30.48472 l 10.16571,17.24488 -17.16689,30.56255 -17.16689,30.56256 -35.79491,-0.0639 -35.79491,-0.0639 -17.23933,-29.34341 c -9.48163,-16.13887 -17.21575,-29.99042 -17.18691,-30.78122 0.0288,-0.79079 7.74158,-14.91524 17.13944,-31.38764 z"
         id="use3397-3"
         inkscape:connector-curvature="0"
         inkscape:tile-x0="5.5088343"
         inkscape:tile-y0="4.7013725" />
      <path
         style="fill:#ffffff;fill-opacity:1;fill-rule:evenodd;stroke:#000000;stroke-width:2.36854959;stroke-miterlimit:4;stroke-opacity:1;stroke-dasharray:none;stroke-dashoffset:6.65911639"
         d="m 161.50165,530.70471 17.087,-29.94983 35.04902,-0.25228 35.04903,-0.25227 7.84696,13.23983 c 4.31582,7.2819 12.42152,21.00002 18.01268,30.48472 l 10.16571,17.24488 -17.16689,30.56255 -17.16689,30.56255 -35.79491,-0.0639 -35.79491,-0.0639 -17.23933,-29.34341 c -9.48163,-16.13888 -17.21575,-29.99042 -17.18691,-30.78122 0.0288,-0.79079 7.74158,-14.91524 17.13944,-31.38765 z"
         id="use3399-4"
         inkscape:connector-curvature="0"
         inkscape:tile-x0="5.5088343"
         inkscape:tile-y0="4.7013725" />
      <path
         style="fill:#ffffff;fill-opacity:1;fill-rule:evenodd;stroke:#000000;stroke-width:2.36854959;stroke-miterlimit:4;stroke-opacity:1;stroke-dasharray:none;stroke-dashoffset:6.65911639"
         d="m 56.239245,591.75201 17.087,-29.94983 35.049025,-0.25228 35.04903,-0.25227 7.84696,13.23983 c 4.31582,7.2819 12.42152,21.00001 18.01268,30.48472 l 10.16571,17.24488 -17.16689,30.56254 -17.16689,30.56256 -35.79491,-0.0639 -35.794915,-0.0639 -17.23933,-29.34341 c -9.4816,-16.13888 -17.2157,-29.99042 -17.1869,-30.78122 0.029,-0.79079 7.7416,-14.91524 17.13943,-31.38765 z"
         id="use3401-9"
         inkscape:connector-curvature="0"
         inkscape:tile-x0="5.5088343"
         inkscape:tile-y0="4.7013725" />
      <path
         style="fill:#ffffff;fill-opacity:1;fill-rule:evenodd;stroke:#000000;stroke-width:2.36854959;stroke-miterlimit:4;stroke-opacity:1;stroke-dasharray:none;stroke-dashoffset:6.65911639"
         d="m 687.81385,347.56292 17.08701,-29.94984 35.04901,-0.25227 35.04903,-0.25227 7.84696,13.23983 c 4.31582,7.2819 12.42152,21.00001 18.01268,30.48472 l 10.16571,17.24488 -17.16689,30.56254 -17.16689,30.56256 -35.79491,-0.0639 -35.79491,-0.0639 -17.23932,-29.34341 c -9.48164,-16.13888 -17.21576,-29.99043 -17.18692,-30.78122 0.0288,-0.79079 7.74159,-14.91524 17.13944,-31.38765 z"
         id="use3407-7"
         inkscape:connector-curvature="0"
         inkscape:tile-x0="5.5088343"
         inkscape:tile-y0="4.7013725" />
      <path
         style="fill:#ffffff;fill-opacity:1;fill-rule:evenodd;stroke:#000000;stroke-width:2.36854959;stroke-miterlimit:4;stroke-opacity:1;stroke-dasharray:none;stroke-dashoffset:6.65911639"
         d="m 582.55141,408.61022 17.08701,-29.94984 35.04901,-0.25228 35.04903,-0.25227 7.84696,13.23983 c 4.31582,7.2819 12.42152,21.00002 18.01268,30.48472 l 10.16571,17.24488 -17.16689,30.56255 -17.16689,30.56256 -35.79491,-0.0639 -35.79491,-0.0639 -17.23932,-29.3434 c -9.48164,-16.13888 -17.21576,-29.99043 -17.18692,-30.78123 0.0288,-0.79078 7.74159,-14.91524 17.13944,-31.38764 z"
         id="use3409-9"
         inkscape:connector-curvature="0"
         inkscape:tile-x0="5.5088343"
         inkscape:tile-y0="4.7013725" />
      <path
         style="fill:#ffffff;fill-opacity:1;fill-rule:evenodd;stroke:#000000;stroke-width:2.36854959;stroke-miterlimit:4;stroke-opacity:1;stroke-dasharray:none;stroke-dashoffset:6.65911639"
         d="m 477.28897,469.65752 17.08701,-29.94984 35.04901,-0.25228 35.04903,-0.25227 7.84696,13.23983 c 4.31582,7.2819 12.42152,21.00002 18.01268,30.48472 l 10.16571,17.24488 -17.16689,30.56255 -17.16689,30.56256 -35.79491,-0.0639 -35.79491,-0.0639 -17.23932,-29.34341 c -9.48164,-16.13887 -17.21576,-29.99042 -17.18692,-30.78122 0.0288,-0.79079 7.74159,-14.91524 17.13944,-31.38764 z"
         id="use3411-4"
         inkscape:connector-curvature="0"
         inkscape:tile-x0="5.5088343"
         inkscape:tile-y0="4.7013725" />
      <path
         style="fill:#ffffff;fill-opacity:1;fill-rule:evenodd;stroke:#000000;stroke-width:2.36854959;stroke-miterlimit:4;stroke-opacity:1;stroke-dasharray:none;stroke-dashoffset:6.65911639"
         d="m 372.02655,530.70471 17.087,-29.94983 35.04902,-0.25228 35.04903,-0.25227 7.84696,13.23983 c 4.31582,7.2819 12.42152,21.00002 18.01268,30.48472 l 10.16571,17.24488 -17.16689,30.56255 -17.16689,30.56255 -35.79491,-0.0639 -35.79491,-0.0639 -17.23932,-29.34341 c -9.48164,-16.13888 -17.21576,-29.99042 -17.18692,-30.78122 0.0288,-0.79079 7.74159,-14.91524 17.13944,-31.38765 z"
         id="use3413-2"
         inkscape:connector-curvature="0"
         inkscape:tile-x0="5.5088343"
         inkscape:tile-y0="4.7013725" />
      <path
         style="fill:#ffffff;fill-opacity:1;fill-rule:evenodd;stroke:#000000;stroke-width:2.36854959;stroke-miterlimit:4;stroke-opacity:1;stroke-dasharray:none;stroke-dashoffset:6.65911639"
         d="m 266.76405,591.75201 17.087,-29.94983 35.04902,-0.25228 35.04903,-0.25227 7.84696,13.23983 c 4.31582,7.2819 12.42152,21.00001 18.01268,30.48472 l 10.16571,17.24488 -17.16689,30.56254 -17.16689,30.56256 -35.79491,-0.0639 -35.79491,-0.0639 -17.23933,-29.34341 c -9.48163,-16.13888 -17.21575,-29.99042 -17.18691,-30.78122 0.0288,-0.79079 7.74158,-14.91524 17.13944,-31.38765 z"
         id="use3415-9"
         inkscape:connector-curvature="0"
         inkscape:tile-x0="5.5088343"
         inkscape:tile-y0="4.7013725" />
      <path
         style="fill:#ffffff;fill-opacity:1;fill-rule:evenodd;stroke:#000000;stroke-width:2.36854959;stroke-miterlimit:4;stroke-opacity:1;stroke-dasharray:none;stroke-dashoffset:6.65911639"
         d="m 161.50165,652.79933 17.087,-29.94984 35.04902,-0.25228 35.04903,-0.25226 7.84696,13.23982 c 4.31582,7.2819 12.42152,21.00002 18.01268,30.48472 l 10.16571,17.24488 -17.16689,30.56255 -17.16689,30.56256 -35.79491,-0.0639 -35.79491,-0.0639 -17.23933,-29.34341 c -9.48163,-16.13888 -17.21575,-29.99043 -17.18691,-30.78122 0.0288,-0.79079 7.74158,-14.91524 17.13944,-31.38765 z"
         id="use3417-4"
         inkscape:connector-curvature="0"
         inkscape:tile-x0="5.5088343"
         inkscape:tile-y0="4.7013725" />
      <path
         style="fill:#ffffff;fill-opacity:1;fill-rule:evenodd;stroke:#000000;stroke-width:2.36854959;stroke-miterlimit:4;stroke-opacity:1;stroke-dasharray:none;stroke-dashoffset:6.65911639"
         d="m 56.239245,713.84653 17.087,-29.94984 35.049025,-0.25228 35.04903,-0.25227 7.84696,13.23983 c 4.31582,7.2819 12.42152,21.00002 18.01268,30.48472 l 10.16571,17.24488 -17.16689,30.56255 -17.16689,30.56256 -35.79491,-0.0639 -35.794915,-0.0639 -17.23933,-29.34341 c -9.4816,-16.13887 -17.2157,-29.99042 -17.1869,-30.78122 0.029,-0.79078 7.7416,-14.91524 17.13943,-31.38764 z"
         id="use3419-2"
         inkscape:connector-curvature="0"
         inkscape:tile-x0="5.5088343"
         inkscape:tile-y0="4.7013725" />
    </g>
    <use
       x="0"
       y="0"
       inkscape:tiled-clone-of="#path3067"
       xlink:href="#path3067"
       id="use3313-2"
       width="744.09448"
       height="1052.3622"
       transform="translate(-1447.0155,63.849535)"
       style="fill:#000000;fill-opacity:1;stroke:#000000;stroke-opacity:1"
       inkscape:export-xdpi="90"
       inkscape:export-ydpi="90" />
  </g>
</svg>
